<?xml version="1.0" encoding="UTF-8" standalone="no"?>
<svg
   xmlns:dc="http://purl.org/dc/elements/1.1/"
   xmlns:cc="http://creativecommons.org/ns#"
   xmlns:rdf="http://www.w3.org/1999/02/22-rdf-syntax-ns#"
   xmlns:svg="http://www.w3.org/2000/svg"
   xmlns="http://www.w3.org/2000/svg"
   id="svg8"
   version="1.1"
   viewBox="0 0 68.791664 68.791656"
   height="68.791656mm"
   width="68.791664mm">
  <defs
     id="defs2" />
  <metadata
     id="metadata5">
    <rdf:RDF>
      <cc:Work
         rdf:about="">
        <dc:format>image/svg+xml</dc:format>
        <dc:type
           rdf:resource="http://purl.org/dc/dcmitype/StillImage" />
        <dc:title></dc:title>
      </cc:Work>
    </rdf:RDF>
  </metadata>
  <g
     transform="translate(-32.997319,-106.00863)"
     id="layer1">
    <path
       id="path3710"
       d="m 32.997319,140.40446 v -34.39583 h 34.395832 34.395829 v 34.39583 34.39583 H 67.393151 32.997319 Z m 66.410414,0 V 108.38988 H 67.393151 35.378569 v 32.01458 32.01458 h 32.014582 32.014582 z m -40.536621,26.05349 c -2.262258,-0.3085 -4.871253,-1.00501 -7.882127,-2.10428 l -0.926042,-0.33809 -0.07141,-5.58785 c -0.03927,-3.07332 7.93e-4,-5.58785 0.08904,-5.58785 0.196837,0 2.570041,1.64153 2.778255,1.9217 0.233884,0.31471 4.43517,1.9726 6.199947,2.4466 5.098029,1.36924 11.060229,0.40091 12.973103,-2.107 1.992913,-2.61284 0.394647,-6.23892 -3.636952,-8.25135 -2.457876,-1.22689 -5.446546,-2.57674 -7.01888,-3.17011 -2.537432,-0.9576 -6.17447,-3.33803 -7.826529,-5.12245 -5.638852,-6.09063 -5.061645,-15.05714 1.312961,-20.39591 4.350257,-3.64337 12.566415,-5.24342 20.997338,-4.08913 2.522601,0.34538 5.913988,1.1607 6.605368,1.58799 0.173847,0.10745 0.273799,2.09278 0.273799,5.43841 v 5.26918 l -1.320342,-0.7785 c -3.17753,-1.87354 -8.415798,-3.11242 -12.010512,-2.84055 -6.623621,0.50094 -9.669099,4.89375 -5.968687,8.60926 0.774594,0.77775 4.174871,2.96102 4.611568,2.96102 0.258413,0 2.815484,1.18268 6.645381,3.07357 5.406334,2.6692 7.739842,4.85576 9.384609,8.79363 1.618779,3.87565 1.284835,8.90609 -0.830665,12.51293 -1.207148,2.05814 -4.078782,4.81924 -5.803019,5.57966 -5.297662,2.33634 -11.816016,3.10099 -18.576205,2.17912 z"
       style="fill:#000000;stroke-width:0.26458332" />
  </g>
</svg>
